<svg width="43" height="45" viewBox="0 0 43 45" fill="none" xmlns="http://www.w3.org/2000/svg">
<path d="M13.8352 28.7784L15.3693 27.9545L21.2784 31.2784V23.0966L20.0852 22.5L14.1761 19.0625V25.7955L12.8693 26.5057L7.89773 23.6648L1.98864 26.9886V33.8636L7.89773 37.1875L13.8352 33.8636V28.7784ZM31.9318 26.5341L30.7386 25.8239V19.0625L23.6364 23.0966V31.2784L29.5455 27.9545L31.0795 28.7784V33.8636L36.9886 37.1875L42.8977 33.8636V26.9886L36.9886 23.6648L31.9318 26.5341ZM31.9318 5.22727V10.6818L38.2102 14.1193V20.2841L38.8068 20.625L42.9545 22.983V11.25L31.9318 5.22727ZM28.3807 36.3636L22.4716 39.5454L16.5625 36.3636L15.625 36.9602L11.733 39.0909L22.5 45L33.267 39.0909L29.3466 36.9602L28.3807 36.3636ZM6.73296 20.2557V14.0909L13.0114 10.6534V5.22727L1.98864 11.25V22.9545L6.13637 20.5966L6.73296 20.2557ZM15.3693 17.0455L22.4716 21.0795L23.6648 20.3693L29.5739 17.0455L23.6648 13.7216V12.8977L28.4091 10.1705V3.4375L22.4716 0L16.5625 3.4375V10.1705L21.3068 12.8977V13.7216L15.3693 17.0455Z" fill="#D1418B"/>
<path d="M11.8466 28.7784L13.3807 27.9545L19.2898 31.2784V23.0966L18.0966 22.5L12.1875 19.0625V25.7955L10.8807 26.5057L5.90909 23.6648L0 26.9886V33.8636L5.90909 37.1875L11.8466 33.8636V28.7784ZM29.9432 26.5341L28.75 25.8239V19.0625L21.6477 23.0966V31.2784L27.5568 27.9545L29.0909 28.7784V33.8636L35 37.1875L40.9091 33.8636V26.9886L35 23.6648L29.9432 26.5341ZM29.9432 5.22727V10.6818L36.2216 14.1193V20.2841L36.8182 20.625L40.9659 22.983V11.25L29.9432 5.22727ZM26.392 36.3636L20.483 39.5454L14.5739 36.3636L13.6364 36.9602L9.74432 39.0909L20.5114 45L31.2784 39.0909L27.358 36.9602L26.392 36.3636ZM4.74432 20.2557V14.0909L11.0227 10.6534V5.22727L0 11.25V22.9545L4.14773 20.5966L4.74432 20.2557ZM13.3807 17.0455L20.483 21.0795L21.6761 20.3693L27.5852 17.0455L21.6761 13.7216V12.8977L26.4205 10.1705V3.4375L20.483 0L14.5739 3.4375V10.1705L19.3182 12.8977V13.7216L13.3807 17.0455Z" fill="white"/>
</svg>
